<?xml version="1.0" encoding="UTF-8" standalone="no"?>
<!-- Created with Inkscape (http://www.inkscape.org/) -->

<svg
   xmlns:dc="http://purl.org/dc/elements/1.1/"
   xmlns:cc="http://creativecommons.org/ns#"
   xmlns:rdf="http://www.w3.org/1999/02/22-rdf-syntax-ns#"
   xmlns:svg="http://www.w3.org/2000/svg"
   xmlns="http://www.w3.org/2000/svg"
   xmlns:sodipodi="http://sodipodi.sourceforge.net/DTD/sodipodi-0.dtd"
   xmlns:inkscape="http://www.inkscape.org/namespaces/inkscape"
   width="77"
   height="60"
   id="svg3876"
   version="1.1"
   inkscape:version="0.48.4 r9939"
   sodipodi:docname="controller.svg">
  <defs
     id="defs3878" />
  <sodipodi:namedview
     id="base"
     pagecolor="#ffffff"
     bordercolor="#666666"
     borderopacity="1.0"
     inkscape:pageopacity="0.0"
     inkscape:pageshadow="2"
     inkscape:zoom="5.6568543"
     inkscape:cx="32.994963"
     inkscape:cy="17.811791"
     inkscape:current-layer="layer1"
     showgrid="true"
     inkscape:grid-bbox="true"
     inkscape:document-units="px"
     inkscape:window-width="1366"
     inkscape:window-height="705"
     inkscape:window-x="-8"
     inkscape:window-y="-8"
     inkscape:window-maximized="1" />
  <metadata
     id="metadata3881">
    <rdf:RDF>
      <cc:Work
         rdf:about="">
        <dc:format>image/svg+xml</dc:format>
        <dc:type
           rdf:resource="http://purl.org/dc/dcmitype/StillImage" />
        <dc:title />
      </cc:Work>
    </rdf:RDF>
  </metadata>
  <g
     id="layer1"
     inkscape:label="Layer 1"
     inkscape:groupmode="layer"
     transform="translate(0,44)">
    <path
       transform="matrix(4.1320711,0,0,4.1320711,47.700519,-46.951914)"
       d="m 5.0012052,5.7427511 c 0,1.6185492 -1.3120934,2.9306426 -2.9306426,2.9306426 -1.61854922,0 -2.9306426,-1.3120934 -2.9306426,-2.9306426 0,-1.6185492 1.31209338,-2.9306426 2.9306426,-2.9306426 1.6185492,0 2.9306426,1.3120934 2.9306426,2.9306426 z"
       sodipodi:ry="2.9306426"
       sodipodi:rx="2.9306426"
       sodipodi:cy="5.7427511"
       sodipodi:cx="2.0705626"
       id="path3886"
       style="fill:#aa0000;fill-opacity:1;fill-rule:nonzero;stroke:none"
       sodipodi:type="arc" />
    <path
       sodipodi:type="arc"
       style="fill:#aa0000;fill-opacity:1;fill-rule:nonzero;stroke:none"
       id="path3888"
       sodipodi:cx="2.0705626"
       sodipodi:cy="5.7427511"
       sodipodi:rx="2.9306426"
       sodipodi:ry="2.9306426"
       d="m 5.0012052,5.7427511 c 0,1.6185492 -1.3120934,2.9306426 -2.9306426,2.9306426 -1.61854922,0 -2.9306426,-1.3120934 -2.9306426,-2.9306426 0,-1.6185492 1.31209338,-2.9306426 2.9306426,-2.9306426 1.6185492,0 2.9306426,1.3120934 2.9306426,2.9306426 z"
       transform="matrix(4.1320711,0,0,4.1320711,10.761265,-46.297127)" />
    <path
       transform="matrix(3.557947,0,0,3.557947,3.5701726,-16.105305)"
       d="m 5.0012052,5.7427511 c 0,1.6185492 -1.3120934,2.9306426 -2.9306426,2.9306426 -1.61854922,0 -2.9306426,-1.3120934 -2.9306426,-2.9306426 0,-1.6185492 1.31209338,-2.9306426 2.9306426,-2.9306426 1.6185492,0 2.9306426,1.3120934 2.9306426,2.9306426 z"
       sodipodi:ry="2.9306426"
       sodipodi:rx="2.9306426"
       sodipodi:cy="5.7427511"
       sodipodi:cx="2.0705626"
       id="path3892"
       style="fill:#aa0000;fill-opacity:1;fill-rule:nonzero;stroke:none"
       sodipodi:type="arc" />
    <path
       style="fill:#aa0000;fill-opacity:1;stroke:none"
       d="M 0.69079701,2.462902 7.5906965,-25.599741 31.267264,-20.177614 20.591675,8.3437343 z"
       id="path3894"
       inkscape:connector-curvature="0"
       sodipodi:nodetypes="ccccc" />
    <path
       inkscape:connector-curvature="0"
       id="path4404"
       d="M 75.376693,2.7494955 67.711995,-27.186349 44.465283,-20.513728 55.140876,8.0076184 z"
       style="fill:#aa0000;fill-opacity:1;stroke:none"
       sodipodi:nodetypes="ccccc" />
    <path
       transform="matrix(3.557947,0,0,3.557947,57.747146,-15.418979)"
       d="m 5.0012052,5.7427511 c 0,1.6185492 -1.3120934,2.9306426 -2.9306426,2.9306426 -1.61854922,0 -2.9306426,-1.3120934 -2.9306426,-2.9306426 0,-1.6185492 1.31209338,-2.9306426 2.9306426,-2.9306426 1.6185492,0 2.9306426,1.3120934 2.9306426,2.9306426 z"
       sodipodi:ry="2.9306426"
       sodipodi:rx="2.9306426"
       sodipodi:cy="5.7427511"
       sodipodi:cx="2.0705626"
       id="path4406"
       style="fill:#aa0000;fill-opacity:1;fill-rule:nonzero;stroke:none"
       sodipodi:type="arc" />
    <rect
       style="fill:#aa0000;fill-opacity:1;fill-rule:nonzero;stroke:none"
       id="rect4432"
       width="38.921658"
       height="21.793447"
       x="15.697624"
       y="-28.601347" />
    <path
       sodipodi:type="arc"
       style="fill:#aa0000;fill-opacity:1;fill-rule:nonzero;stroke:none"
       id="path4434"
       sodipodi:cx="2.0705626"
       sodipodi:cy="5.7427511"
       sodipodi:rx="2.9306426"
       sodipodi:ry="2.9306426"
       d="m 5.0012052,5.7427511 c 0,1.6185492 -1.3120934,2.9306426 -2.9306426,2.9306426 -1.61854922,0 -2.9306426,-1.3120934 -2.9306426,-2.9306426 0,-1.6185492 1.31209338,-2.9306426 2.9306426,-2.9306426 1.6185492,0 2.9306426,1.3120934 2.9306426,2.9306426 z"
       transform="matrix(2.4642118,0,0,2.4642118,19.319383,-21.208764)" />
    <path
       transform="matrix(2.4642118,0,0,2.4642118,43.192291,-19.551177)"
       d="m 5.0012052,5.7427511 c 0,1.6185492 -1.3120934,2.9306426 -2.9306426,2.9306426 -1.61854922,0 -2.9306426,-1.3120934 -2.9306426,-2.9306426 0,-1.6185492 1.31209338,-2.9306426 2.9306426,-2.9306426 1.6185492,0 2.9306426,1.3120934 2.9306426,2.9306426 z"
       sodipodi:ry="2.9306426"
       sodipodi:rx="2.9306426"
       sodipodi:cy="5.7427511"
       sodipodi:cx="2.0705626"
       id="path4436"
       style="fill:#aa0000;fill-opacity:1;fill-rule:nonzero;stroke:none"
       sodipodi:type="arc" />
    <rect
       style="fill:#aa0000;fill-opacity:1;fill-rule:nonzero;stroke:none"
       id="rect4438"
       width="11.332612"
       height="8.2845306"
       x="13.587415"
       y="-36.182476"
       ry="1.2504952" />
    <rect
       ry="1.2504952"
       y="-36.359253"
       x="51.115131"
       height="8.2845306"
       width="11.332612"
       id="rect4440"
       style="fill:#aa0000;fill-opacity:1;fill-rule:nonzero;stroke:none" />
    <path
       transform="matrix(4.1320711,0,0,4.1320711,10.956196,-46.492057)"
       d="m 5.0012052,5.7427511 c 0,1.6185492 -1.3120934,2.9306426 -2.9306426,2.9306426 -1.61854922,0 -2.9306426,-1.3120934 -2.9306426,-2.9306426 0,-1.6185492 1.31209338,-2.9306426 2.9306426,-2.9306426 1.6185492,0 2.9306426,1.3120934 2.9306426,2.9306426 z"
       sodipodi:ry="2.9306426"
       sodipodi:rx="2.9306426"
       sodipodi:cy="5.7427511"
       sodipodi:cx="2.0705626"
       id="path4444"
       style="fill:#aa0000;fill-opacity:1;fill-rule:nonzero;stroke:none"
       sodipodi:type="arc" />
    <path
       sodipodi:type="arc"
       style="fill:#aa0000;fill-opacity:1;fill-rule:nonzero;stroke:none"
       id="path4448"
       sodipodi:cx="2.0705626"
       sodipodi:cy="5.7427511"
       sodipodi:rx="2.9306426"
       sodipodi:ry="2.9306426"
       d="m 5.0012052,5.7427511 c 0,1.6185492 -1.3120934,2.9306426 -2.9306426,2.9306426 -1.61854922,0 -2.9306426,-1.3120934 -2.9306426,-2.9306426 0,-1.6185492 1.31209338,-2.9306426 2.9306426,-2.9306426 1.6185492,0 2.9306426,1.3120934 2.9306426,2.9306426 z"
       transform="matrix(3.557947,0,0,3.557947,3.7651034,-16.300236)" />
    <path
       sodipodi:nodetypes="ccccc"
       inkscape:connector-curvature="0"
       id="path4450"
       d="M 0.88572783,2.2679719 7.7856274,-25.794671 31.462195,-20.372546 20.786607,8.1488045 z"
       style="fill:#aa0000;fill-opacity:1;stroke:none" />
    <rect
       y="-28.973057"
       x="22.079739"
       height="21.793447"
       width="38.921658"
       id="rect4456"
       style="fill:#aa0000;fill-opacity:1;fill-rule:nonzero;stroke:none" />
    <path
       transform="matrix(2.4642118,0,0,2.4642118,21.989188,-19.459151)"
       d="m 5.0012052,5.7427511 c 0,1.6185492 -1.3120934,2.9306426 -2.9306426,2.9306426 -1.61854922,0 -2.9306426,-1.3120934 -2.9306426,-2.9306426 0,-1.6185492 1.31209338,-2.9306426 2.9306426,-2.9306426 1.6185492,0 2.9306426,1.3120934 2.9306426,2.9306426 z"
       sodipodi:ry="2.9306426"
       sodipodi:rx="2.9306426"
       sodipodi:cy="5.7427511"
       sodipodi:cx="2.0705626"
       id="path4458"
       style="fill:#aa0000;fill-opacity:1;fill-rule:nonzero;stroke:none"
       sodipodi:type="arc" />
    <rect
       ry="1.2504952"
       y="-36.377407"
       x="13.782346"
       height="8.2845306"
       width="11.332612"
       id="rect4462"
       style="fill:#aa0000;fill-opacity:1;fill-rule:nonzero;stroke:none" />
  </g>
</svg>
