<?xml version="1.0" encoding="UTF-8" standalone="no"?>
<!-- Created with Inkscape (http://www.inkscape.org/) -->

<svg
   xmlns:dc="http://purl.org/dc/elements/1.1/"
   xmlns:cc="http://creativecommons.org/ns#"
   xmlns:rdf="http://www.w3.org/1999/02/22-rdf-syntax-ns#"
   xmlns:svg="http://www.w3.org/2000/svg"
   xmlns="http://www.w3.org/2000/svg"
   version="1.1"
   width="77"
   height="60"
   id="svg3876">
  <defs
     id="defs3878" />
  <metadata
     id="metadata3881">
    <rdf:RDF>
      <cc:Work
         rdf:about="">
        <dc:format>image/svg+xml</dc:format>
        <dc:type
           rdf:resource="http://purl.org/dc/dcmitype/StillImage" />
        <dc:title></dc:title>
      </cc:Work>
    </rdf:RDF>
  </metadata>
  <g
     transform="translate(0,44)"
     id="layer1">
    <path
       d="m 62.402174,24.291107 a 16.263456,16.263456 0 1 1 -32.526913,0 16.263456,16.263456 0 1 1 32.526913,0 z"
       transform="matrix(1.1985734,0,0,1.4144819,-16.665642,-54.354351)"
       id="path5123"
       style="fill:#aa0000;fill-opacity:1;fill-rule:nonzero;stroke:#ffffff;stroke-width:1.90999997;stroke-miterlimit:4;stroke-opacity:1;stroke-dasharray:none" />
    <path
       d="m 20.371695,-21.129321 4.824877,20.41616193 c 2.749997,8.93537497 5.978725,9.73232007 8.968087,14.59848007 1.628406,2.499282 9.403175,1.767142 10.332723,-0.128657 2.729721,-4.649593 6.635134,-8.2727443 7.622876,-14.44317677 L 56.941886,-20.157249 z"
       id="path5125"
       style="fill:#aa0000;fill-opacity:1;stroke:none" />
    <path
       d="m 38.752617,-13.606865 c -3.324706,-0.03624 -2.840253,-2.786233 -8.186126,-3.49412 -3.863167,0.234933 -8.069633,2.711149 -8.053957,4.757003 -0.0061,3.4738052 5.136159,5.6108226 7.470428,5.9916218 5.614241,0.071501 7.137541,-5.0661918 8.769655,-4.8385568 z"
       id="path5127"
       style="fill:#ffffff;fill-opacity:1;stroke:none" />
    <rect
       width="4.2514191"
       height="2.5236733"
       x="36.981834"
       y="-13.705317"
       id="rect5131"
       style="fill:#ffffff;fill-opacity:1;fill-rule:nonzero;stroke:none" />
    <path
       d="m 38.545596,-13.71668 c 3.324706,-0.03624 2.840253,-2.786234 8.186125,-3.494121 3.863168,0.234934 8.069634,2.711149 8.053958,4.757004 0.0061,3.4738048 -5.136159,5.6108223 -7.470428,5.9916214 -5.614242,0.071502 -7.137541,-5.0661924 -8.769655,-4.8385564 z"
       id="path5137"
       style="fill:#ffffff;fill-opacity:1;stroke:none" />
    <rect
       width="1.7227353"
       height="2.2237697"
       ry="0.46590894"
       x="20.680115"
       y="-13.213896"
       id="rect5141"
       style="fill:#aa0000;fill-opacity:1;fill-rule:nonzero;stroke:none" />
    <rect
       width="2.0035319"
       height="2.2237697"
       ry="0.5823862"
       x="54.754498"
       y="-13.419802"
       id="rect5141-1"
       style="fill:#aa0000;fill-opacity:1;fill-rule:nonzero;stroke:none" />
    <path
       d="m 36.402615,-51.000203 c -0.54908,11.311027 -0.54908,11.311027 -0.54908,11.311027 l 5.161343,0 -1.866868,-11.640474 z"
       id="path5169"
       style="fill:none;stroke:none" />
    <path
       d="m 20.402246,-20.19849 -1.789789,-12.352659 6.149684,-3.074843 2.525763,-5.820237 16.033106,-1.866869 9.773605,4.282816 6.2595,-1.427604 0.219632,12.848446 -3.40429,11.640474 z"
       id="path5181"
       style="fill:#aa0000;fill-opacity:1;stroke:none" />
  </g>
</svg>
