<?xml version="1.0" encoding="UTF-8" standalone="no"?>
<!-- Created with Inkscape (http://www.inkscape.org/) -->

<svg
   xmlns:dc="http://purl.org/dc/elements/1.1/"
   xmlns:cc="http://creativecommons.org/ns#"
   xmlns:rdf="http://www.w3.org/1999/02/22-rdf-syntax-ns#"
   xmlns:svg="http://www.w3.org/2000/svg"
   xmlns="http://www.w3.org/2000/svg"
   version="1.1"
   width="77"
   height="60"
   id="svg3876">
  <defs
     id="defs3878" />
  <metadata
     id="metadata3881">
    <rdf:RDF>
      <cc:Work
         rdf:about="">
        <dc:format>image/svg+xml</dc:format>
        <dc:type
           rdf:resource="http://purl.org/dc/dcmitype/StillImage" />
        <dc:title></dc:title>
      </cc:Work>
    </rdf:RDF>
  </metadata>
  <g
     transform="translate(0,44)"
     id="layer1">
    <path
       d="M 26.50209,-23.532909 14.486577,0.5640282 C 28.160317,-2.2916555 34.806672,4.6436982 40.741914,12.569825 49.282285,4.4036199 58.009796,-3.2006311 69.461001,-2.6260622 L 58.100859,-20.796525 42.305243,-29.336173 z"
       id="path4492"
       style="fill:#aa0000;fill-opacity:1;stroke:none" />
    <path
       d="M 0.98371749,-17.859861 31.799788,-34.573224 74.171896,-28.88349 52.022864,-8.9698043 z"
       id="path4506"
       style="fill:#ffffff;fill-opacity:1;stroke:none" />
    <path
       d="m 1.1850605,-15.954138 30.6147275,-16.607499 42.914896,5.465164 -20.233942,19.2310694 c -0.369145,0.3621338 -1.047305,0.9930118 -2.449431,0.9783552 z"
       id="path4508"
       style="fill:#ffffff;fill-opacity:1;stroke:none" />
    <path
       d="m 6.03125,25.859375 a 0.8203125,0.8203125 0 1 1 -1.640625,0 0.8203125,0.8203125 0 1 1 1.640625,0 z"
       transform="matrix(1.2365938,0,0,1.3003759,-5.1280962,-50.481615)"
       id="path4510"
       style="fill:#ffffff;fill-opacity:1;fill-rule:nonzero;stroke:none" />
    <rect
       width="2.1266668"
       height="1.5532862"
       x="1.8496081"
       y="-17.846563"
       id="rect4512"
       style="fill:#ffffff;fill-opacity:1;fill-rule:nonzero;stroke:none" />
    <path
       d="m 69.90625,16.859375 a 0.78125,0.78125 0 1 1 -1.5625,0 0.78125,0.78125 0 1 1 1.5625,0 z"
       transform="matrix(1.2642545,0,0,1.3294633,-13.342091,-50.27263)"
       id="path4514"
       style="fill:#ffffff;fill-opacity:1;fill-rule:nonzero;stroke:none" />
    <rect
       width="0.95210606"
       height="1.2070718"
       x="72.554611"
       y="-28.232996"
       id="rect4516"
       style="fill:#ffffff;fill-opacity:1;fill-rule:nonzero;stroke:none" />
    <path
       d="M 0.98371749,-17.859861 31.799788,-34.573224 74.171896,-28.88349 52.022864,-8.9698043 z"
       id="path4518"
       style="fill:#ffffff;fill-opacity:1;stroke:none" />
    <path
       d="m 6.03125,25.859375 a 0.8203125,0.8203125 0 1 1 -1.640625,0 0.8203125,0.8203125 0 1 1 1.640625,0 z"
       transform="matrix(1.2365938,0,0,1.3003759,-5.1280962,-50.481615)"
       id="path4520"
       style="fill:#ffffff;fill-opacity:1;fill-rule:nonzero;stroke:none" />
    <rect
       width="2.1266668"
       height="1.5532862"
       x="1.8496081"
       y="-17.846563"
       id="rect4522"
       style="fill:#ffffff;fill-opacity:1;fill-rule:nonzero;stroke:none" />
    <path
       d="m 69.90625,16.859375 a 0.78125,0.78125 0 1 1 -1.5625,0 0.78125,0.78125 0 1 1 1.5625,0 z"
       transform="matrix(1.2642545,0,0,1.3294633,-13.342091,-50.27263)"
       id="path4524"
       style="fill:#ffffff;fill-opacity:1;fill-rule:nonzero;stroke:none" />
    <rect
       width="0.95210606"
       height="1.2070718"
       x="72.554611"
       y="-28.232996"
       id="rect4526"
       style="fill:#ffffff;fill-opacity:1;fill-rule:nonzero;stroke:none" />
    <path
       d="M 1.5877465,-19.977142 32.403817,-36.690504 74.775924,-31.00077 52.626893,-11.087084 z"
       id="path4468"
       style="fill:#f05f40;fill-opacity:1;stroke:none" />
    <path
       d="m 1.5877465,-17.965555 30.8160705,-16.713362 42.914896,5.465164 -22.049172,19.5679263 c -0.679443,0.5585174 -0.980728,0.4684157 -1.630798,0.3982121 z"
       id="path4470"
       style="fill:#f05f40;fill-opacity:1;stroke:none" />
    <path
       d="m 6.03125,25.859375 a 0.8203125,0.8203125 0 1 1 -1.640625,0 0.8203125,0.8203125 0 1 1 1.640625,0 z"
       transform="matrix(1.2365938,0,0,1.3003759,-4.5240672,-52.598895)"
       id="path4472"
       style="fill:#f05f40;fill-opacity:1;fill-rule:nonzero;stroke:none" />
    <rect
       width="2.1266668"
       height="1.5532862"
       x="2.4536371"
       y="-19.963844"
       id="rect4474"
       style="fill:#f05f40;fill-opacity:1;fill-rule:nonzero;stroke:none" />
    <path
       d="m 69.90625,16.859375 a 0.78125,0.78125 0 1 1 -1.5625,0 0.78125,0.78125 0 1 1 1.5625,0 z"
       transform="matrix(1.2642545,0,0,1.3294633,-12.738062,-52.389911)"
       id="path4476"
       style="fill:#f05f40;fill-opacity:1;fill-rule:nonzero;stroke:none" />
    <rect
       width="0.95210606"
       height="1.2070718"
       x="73.158638"
       y="-30.350277"
       id="rect4478"
       style="fill:#f05f40;fill-opacity:1;fill-rule:nonzero;stroke:none" />
    <path
       d="m 13.3125,29.375 a 2.6875,2.6875 0 1 1 -5.375,0 2.6875,2.6875 0 1 1 5.375,0 z"
       transform="matrix(1.138968,0,0,1.1977147,-1.5060563,-52.498641)"
       id="path4484"
       style="fill:#aa0000;fill-opacity:1;fill-rule:nonzero;stroke:none" />
    <rect
       width="1.0677825"
       height="16.169147"
       x="9.9548092"
       y="-15.369486"
       id="rect4486"
       style="fill:#aa0000;fill-opacity:1;fill-rule:nonzero;stroke:none" />
    <path
       d="m 13.9375,43.125 a 0.875,0.875 0 1 1 -1.75,0 0.875,0.875 0 1 1 1.75,0 z"
       transform="matrix(1.138968,0,0,1.1977147,-4.4246618,-50.477497)"
       id="path4488"
       style="fill:#aa0000;fill-opacity:1;fill-rule:nonzero;stroke:none" />
    <path
       d="M 10.082567,1.3687263 C 9.4481644,0.92102598 8.4341115,2.7901138 8.6771924,3.5008082 8.8437642,5.0330443 10.012615,4.7121103 10.379477,6.8150344 10.459205,7.7809288 10.023684,8.3072127 9.8450389,9.0526648 11.978814,8.0651257 13.155228,5.5440143 12.814139,3.9230026 12.617942,2.6307621 11.903756,1.3559457 11.230619,1.1365194 z"
       id="path4490"
       style="fill:#aa0000;fill-opacity:1;stroke:none" />
    <path
       d="M 1.5877465,-19.977142 32.403817,-36.690504 74.775924,-31.00077 52.626893,-11.087084 z"
       id="path4494"
       style="fill:#aa0000;fill-opacity:1;stroke:none" />
    <path
       d="m 1.5877465,-17.965555 30.8160705,-16.713362 42.914896,5.465164 -22.049172,19.5679263 c -0.679443,0.5585174 -0.980728,0.4684157 -1.630798,0.3982121 z"
       id="path4496"
       style="fill:#aa0000;fill-opacity:1;stroke:none" />
    <path
       d="m 6.03125,25.859375 a 0.8203125,0.8203125 0 1 1 -1.640625,0 0.8203125,0.8203125 0 1 1 1.640625,0 z"
       transform="matrix(1.2365938,0,0,1.3003759,-4.5240672,-52.598895)"
       id="path4498"
       style="fill:#aa0000;fill-opacity:1;fill-rule:nonzero;stroke:none" />
    <rect
       width="2.1266668"
       height="1.5532862"
       x="2.4536371"
       y="-19.963844"
       id="rect4500"
       style="fill:#aa0000;fill-opacity:1;fill-rule:nonzero;stroke:none" />
    <path
       d="m 69.90625,16.859375 a 0.78125,0.78125 0 1 1 -1.5625,0 0.78125,0.78125 0 1 1 1.5625,0 z"
       transform="matrix(1.2642545,0,0,1.3294633,-12.738062,-52.389911)"
       id="path4502"
       style="fill:#aa0000;fill-opacity:1;fill-rule:nonzero;stroke:none" />
    <rect
       width="0.95210606"
       height="1.2070718"
       x="73.158638"
       y="-30.350277"
       id="rect4504"
       style="fill:#aa0000;fill-opacity:1;fill-rule:nonzero;stroke:none" />
  </g>
</svg>
